<?xml version="1.0" standalone="no"?>
<!DOCTYPE svg PUBLIC "-//W3C//DTD SVG 20010904//EN"
 "http://www.w3.org/TR/2001/REC-SVG-20010904/DTD/svg10.dtd">
<svg version="1.0" xmlns="http://www.w3.org/2000/svg"
 width="1200.000000pt" height="800.000000pt" viewBox="0 0 1200.000000 800.000000"
 preserveAspectRatio="xMidYMid meet">
<metadata>
Created by potrace 1.15, written by Peter Selinger 2001-2017
</metadata>
<g transform="translate(0.000000,800.000000) scale(0.100000,-0.100000)"
fill="#000000" stroke="none">
<path d="M0 4000 l0 -4000 6000 0 6000 0 0 4000 0 4000 -45 0 -45 0 0 -114 c0
-70 -4 -117 -11 -121 -7 -5 -10 28 -9 102 1 59 1 114 1 121 -1 8 -17 12 -48
12 l-48 0 -1 -590 c-1 -442 -4 -593 -13 -604 -9 -11 -9 -15 1 -19 10 -4 11 -7
1 -18 -16 -16 -17 -43 -2 -33 8 4 9 -17 4 -77 -4 -46 -8 -167 -10 -269 -3
-189 -7 -249 -18 -267 -3 -5 -6 -50 -7 -99 0 -49 -3 -102 -5 -119 -2 -16 -5
-86 -6 -155 -1 -69 -5 -147 -10 -175 -8 -49 -3 801 6 1180 3 105 7 309 10 455
9 483 16 705 21 748 l5 42 -620 0 -621 0 0 -1114 c0 -613 -3 -1121 -6 -1130
-3 -9 -10 -16 -15 -16 -5 0 -9 474 -9 1130 l0 1130 -521 0 -521 0 6 -487 c3
-269 9 -625 12 -792 l7 -304 -38 7 c-87 17 -90 22 -85 114 2 48 -12 59 -93 72
-51 9 -77 18 -88 33 -14 17 -27 20 -91 20 l-75 -1 -6 376 c-4 206 -7 507 -7
669 l0 293 -2302 0 -2301 0 7 -337 c3 -186 9 -480 12 -653 3 -173 7 -327 9
-342 3 -16 0 -28 -4 -28 -14 0 -19 88 -32 560 -7 239 -15 516 -18 615 l-6 180
-527 3 -528 2 0 -49 c0 -33 -5 -53 -14 -58 -8 -4 -19 -31 -25 -58 l-10 -50 5
53 c4 41 2 52 -10 52 -18 0 -26 22 -26 71 l0 39 -1615 0 -1615 0 0 -4000z
m11896 3348 c-23 -1275 -36 -1786 -52 -2048 -12 -216 -13 -203 -7 310 4 294 7
578 8 630 2 52 5 253 9 445 8 451 25 974 31 1003 15 65 18 -12 11 -340z
m-5589 -430 c29 -32 43 -62 43 -92 0 -14 5 -26 10 -26 6 0 10 14 10 30 0 53
30 32 34 -24 1 -18 7 -23 28 -24 50 -1 145 -31 183 -56 21 -15 47 -25 59 -25
17 1 18 2 4 6 -10 2 -18 8 -18 12 0 17 -36 47 -57 48 -12 1 -44 12 -70 24 -41
19 -45 23 -25 26 13 3 39 -5 58 -16 19 -12 39 -21 43 -21 10 0 -5 87 -19 112
-16 29 6 30 41 1 17 -15 38 -42 45 -60 8 -18 17 -33 20 -33 7 0 0 58 -10 82
-7 16 -6 16 22 2 23 -11 35 -28 47 -63 20 -62 16 -109 -12 -139 -13 -14 -23
-31 -23 -39 0 -21 -68 -144 -92 -168 l-20 -20 12 25 c7 14 18 28 24 32 6 4 8
10 4 13 -3 3 -12 0 -19 -8 -8 -7 -23 -16 -33 -20 -10 -4 -16 -10 -13 -13 3 -3
-3 -14 -13 -24 -9 -9 -19 -21 -21 -26 -2 -5 -23 -24 -45 -42 -42 -32 -105 -44
-119 -23 -8 14 -93 59 -164 88 -50 20 -102 49 -157 87 -1 1 -4 14 -8 30 -6 24
-1 33 35 67 23 21 37 39 30 39 -7 0 -9 5 -6 10 3 6 1 10 -4 10 -6 0 -11 4 -11
9 0 12 96 2 149 -15 47 -15 60 -12 44 8 -6 7 -13 28 -15 46 -5 36 12 43 46 17
25 -19 36 -19 36 0 0 9 -9 15 -22 15 -13 0 -32 7 -42 15 -10 8 -22 12 -26 10
-4 -3 -12 1 -18 8 -12 15 -25 111 -15 120 14 14 50 6 70 -15z m5602 -1198
c-11 -501 -24 -746 -27 -515 -1 61 2 265 8 455 5 190 12 507 17 705 l8 360 3
-255 c2 -140 -2 -478 -9 -750z m-5189 705 c8 0 18 5 22 10 5 7 8 7 8 0 0 -18
-17 -36 -30 -33 -18 4 -24 -18 -5 -25 8 -4 15 -2 15 3 0 14 27 12 34 -2 3 -7
4 1 1 17 -2 17 -2 24 1 17 3 -6 10 -10 15 -6 10 6 33 -45 24 -54 -3 -3 -5 0
-5 7 0 8 -5 9 -18 2 -13 -7 -23 -6 -30 1 -9 9 -12 8 -12 -5 0 -9 7 -17 16 -17
10 0 14 -6 10 -15 -3 -8 0 -15 7 -15 8 0 7 -4 -3 -10 -11 -7 -17 -4 -24 13 -8
19 -10 20 -13 5 -8 -33 -67 -14 -83 25 -7 20 -9 20 -15 4 -5 -12 1 -25 21 -44
18 -15 22 -23 12 -20 -11 4 -18 1 -18 -7 0 -7 -18 -29 -40 -49 -22 -19 -40
-39 -40 -44 0 -5 -12 -16 -27 -25 -24 -15 -25 -18 -8 -18 13 0 16 -3 8 -8 -6
-4 -13 -14 -15 -22 -2 -8 -11 -23 -20 -34 -10 -10 -15 -23 -12 -27 2 -5 -7
-16 -21 -25 -13 -9 -22 -20 -19 -25 3 -5 1 -9 -4 -9 -14 0 -52 -36 -45 -44 3
-3 -1 -6 -9 -6 -8 0 -31 -11 -51 -24 -28 -20 -35 -21 -30 -8 4 12 0 10 -10 -4
-11 -14 -17 -47 -19 -98 l-3 -77 -33 32 c-38 37 -78 110 -91 166 -8 32 -9 28
-6 -27 3 -36 7 -78 11 -95 6 -29 6 -29 -10 -10 l-17 20 10 -20 c12 -24 52 -68
83 -89 39 -28 12 -28 -72 0 -101 32 -164 59 -178 77 -12 14 -4 62 20 117 9 19
20 53 25 75 5 25 14 39 22 37 8 -2 11 3 8 12 -4 9 -2 18 3 21 6 4 10 14 10 24
0 10 7 24 15 31 13 11 15 5 15 -41 0 -53 0 -53 14 -27 16 31 46 214 46 282 0
43 1 44 37 51 21 4 41 12 45 18 12 19 77 -11 141 -64 l58 -48 42 23 c140 77
180 104 195 129 11 17 18 23 22 15 3 -7 12 -13 20 -13z m-716 -219 c39 -16 41
-38 9 -105 -19 -42 -53 -59 -93 -46 -21 7 -24 -2 -14 -43 5 -17 11 -21 25 -17
11 4 19 2 19 -3 0 -19 -27 -73 -36 -72 -5 1 -13 -14 -17 -34 -5 -20 -12 -36
-16 -36 -5 0 -8 -15 -9 -32 0 -18 -9 -57 -19 -86 -15 -47 -20 -52 -40 -47 -27
6 -29 -2 -7 -26 15 -17 15 -24 -5 -97 -11 -43 -21 -89 -20 -103 0 -22 18 30
35 104 8 32 20 35 27 7 3 -11 1 -20 -3 -20 -17 0 12 -72 44 -108 16 -18 18
-25 7 -31 -10 -6 -9 -11 4 -25 9 -9 22 -16 28 -16 8 0 7 -4 -1 -12 -17 -17
-15 -32 8 -58 11 -13 20 -30 20 -38 0 -8 7 -20 16 -26 8 -6 16 -26 16 -44 1
-18 5 -35 10 -38 4 -3 6 -9 3 -14 -3 -5 -1 -18 4 -29 8 -14 8 -21 -2 -24 -9
-3 -9 -9 -2 -23 19 -34 2 -97 -39 -147 -21 -26 -42 -47 -47 -47 -17 0 -87 71
-99 100 -7 17 -16 30 -20 30 -4 0 -29 43 -55 95 -53 106 -53 96 4 185 34 52
37 62 16 54 -8 -4 -15 -11 -15 -17 0 -6 -33 -54 -73 -106 -41 -53 -79 -106
-86 -119 -8 -16 -10 -59 -5 -155 7 -122 11 -143 56 -277 27 -79 74 -203 105
-275 56 -131 113 -285 204 -557 55 -164 82 -313 77 -425 -1 -40 0 -74 3 -77 3
-3 36 90 73 207 37 116 101 316 142 443 66 206 75 241 77 320 2 62 8 98 20
119 9 17 26 56 38 87 11 32 39 85 61 118 62 93 143 389 163 600 10 100 22 137
46 143 21 6 22 3 16 -61 -3 -37 -2 -87 2 -112 l7 -45 7 70 c6 61 10 95 16 128
0 5 5 6 10 3 5 -3 12 5 15 19 4 14 13 25 22 25 16 0 16 -1 -1 -90 -6 -31 -5
-33 8 -18 8 10 16 15 20 12 5 -5 10 13 23 89 5 27 9 35 15 25 6 -9 9 -10 9 0
0 6 5 12 11 12 8 0 10 -16 6 -47 -4 -38 -12 -53 -39 -76 -64 -55 -99 -92 -88
-95 5 -2 7 -9 3 -15 -4 -6 8 -1 25 12 36 25 42 20 12 -11 -11 -12 -17 -24 -14
-27 3 -3 28 18 54 48 27 29 53 50 59 46 6 -3 11 0 11 8 0 7 18 38 41 68 22 30
44 61 49 69 7 12 11 13 22 2 10 -10 6 -24 -21 -75 -53 -96 -24 -59 42 56 l58
102 -5 -55 c-3 -30 -9 -89 -12 -130 -3 -41 -10 -93 -14 -115 -5 -22 -12 -71
-16 -110 -5 -50 -20 -99 -55 -179 -55 -123 -60 -152 -9 -46 19 39 39 70 46 70
13 0 24 -45 24 -101 0 -52 -65 -146 -149 -216 -69 -57 -68 -54 -185 -313 -56
-123 -314 -615 -401 -765 -29 -49 -65 -115 -80 -145 -33 -66 -56 -90 -88 -90
-51 0 -60 -18 -58 -123 1 -54 0 -97 -3 -97 -3 0 -14 31 -26 69 -24 83 -54 117
-115 132 -27 7 -49 19 -52 28 -2 9 -13 32 -23 51 -63 119 -128 307 -265 760
-112 370 -108 357 -112 343 -2 -6 12 -62 31 -124 20 -62 35 -128 35 -148 -1
-38 -16 -105 -18 -83 0 7 -6 10 -13 6 -8 -5 -6 -11 7 -20 11 -8 15 -19 11 -30
-4 -10 1 -25 11 -37 13 -14 14 -21 6 -24 -7 -2 -9 -11 -6 -19 6 -17 -1 -18
-27 -4 -15 8 -21 6 -28 -7 -8 -13 -13 -4 -26 41 -17 57 -14 82 7 69 7 -3 4 3
-6 15 -11 11 -17 25 -14 29 8 12 -19 162 -31 176 -9 11 -36 102 -49 167 -3 14
-7 61 -9 105 l-3 80 20 -25 20 -25 -16 33 c-9 19 -20 30 -27 26 -7 -4 -8 -3
-4 5 5 7 -10 42 -34 82 -23 39 -71 126 -106 193 -62 118 -80 144 -48 68 15
-36 30 -126 59 -372 8 -69 19 -141 25 -160 6 -19 13 -89 15 -155 l5 -120 -20
70 -19 70 1 -55 c1 -30 -2 -66 -5 -80 -4 -14 -8 -59 -10 -102 -4 -97 -31 -133
-70 -93 -11 11 -14 34 -11 98 4 67 1 87 -11 97 -8 7 -16 30 -16 54 -1 23 -4
31 -6 19 -4 -23 -6 -23 -179 -23 l-174 0 0 44 0 45 175 0 c134 1 175 -2 176
-11 0 -7 9 10 18 37 10 28 16 54 14 58 -9 15 9 167 18 161 5 -3 9 -3 9 1 0 7
-63 268 -91 380 -12 44 -31 125 -44 180 -13 55 -30 117 -39 137 -18 41 -14 61
19 98 12 14 32 52 43 85 34 100 82 228 88 234 3 3 3 -24 1 -59 -3 -36 -2 -49
0 -30 2 19 8 39 12 45 5 5 11 45 15 87 9 106 31 172 72 218 43 48 75 63 211
99 59 16 148 44 198 61 62 22 91 28 94 19 2 -7 6 -8 10 -1 4 6 8 -31 9 -81 4
-119 17 -133 18 -19 1 116 8 127 83 135 33 4 75 16 93 27 39 24 48 24 92 6z
m258 -1060 c5 3 8 -2 7 -12 -2 -11 0 -24 4 -30 7 -12 -161 -180 -170 -170 -11
11 -11 111 0 130 6 12 10 24 9 29 -1 4 26 28 60 53 l62 46 9 -26 c5 -14 13
-23 19 -20z m3169 -138 l49 4 0 -339 c0 -186 -5 -565 -10 -843 -5 -278 -12
-674 -16 -880 l-7 -376 414 -13 c228 -7 446 -12 486 -12 61 2 75 -1 93 -19 18
-18 24 -19 36 -9 16 13 107 21 99 9 -8 -12 25 -16 90 -11 50 4 55 6 30 12 -27
6 -26 7 13 8 32 1 41 -2 36 -11 -5 -8 0 -7 11 2 14 11 19 12 22 2 3 -6 9 -10
14 -6 5 3 9 1 9 -4 0 -5 12 -12 27 -15 l28 -5 -24 19 c-16 13 -19 19 -8 19 24
0 47 -11 42 -20 -3 -4 2 -10 10 -14 8 -3 17 -1 21 5 4 7 10 6 19 -1 13 -11 45
-4 45 11 0 14 27 10 33 -5 4 -10 31 -14 103 -15 91 -2 99 -4 119 -27 18 -21
24 -23 33 -11 7 8 10 16 7 18 -2 3 4 5 15 5 10 0 17 -3 14 -7 -2 -4 3 -10 12
-13 8 -3 14 -9 11 -13 -2 -5 7 -18 19 -29 19 -19 24 -20 29 -7 3 9 3 18 0 21
-3 3 -5 -1 -5 -8 0 -7 -9 -1 -21 14 -19 25 -18 53 2 40 5 -3 7 -10 3 -15 -3
-6 3 -13 14 -16 11 -3 23 -16 26 -29 4 -13 13 -24 22 -24 8 0 12 5 9 10 -3 6
-2 10 4 10 6 0 13 -11 17 -25 6 -24 8 -25 101 -24 52 0 97 -2 101 -5 3 -3 -47
-6 -112 -6 -66 0 -115 4 -112 9 3 5 -1 11 -9 15 -8 3 -17 0 -21 -6 -5 -8 -82
-9 -268 -4 -144 3 -443 11 -666 16 -902 23 -1071 30 -1086 44 -15 15 -16 41
-9 141 2 33 6 113 9 178 3 65 10 126 16 135 9 16 9 16 10 0 0 -9 5 -20 10 -23
6 -4 10 16 10 52 -1 53 -2 56 -15 39 -15 -19 -15 -19 -16 5 -1 13 0 29 2 34 2
6 4 39 5 75 1 36 5 121 9 190 4 69 6 139 6 155 -3 96 -1 712 5 1087 6 390 5
438 -9 444 -9 3 -13 12 -10 20 3 8 0 14 -6 14 -7 0 -11 24 -10 68 l2 67 9 -55
10 -55 49 3z m-530 80 c0 -10 2 -10 6 0 2 6 14 12 26 12 18 0 19 -2 7 -10 -9
-6 -10 -10 -3 -10 6 0 15 5 18 10 3 6 27 10 53 10 28 0 42 -4 34 -8 -7 -5 -10
-17 -6 -28 4 -14 3 -15 -4 -5 -6 8 -12 9 -16 3 -14 -23 22 -40 76 -35 49 4 54
3 55 -16 1 -12 -2 -21 -7 -21 -5 0 -16 -3 -26 -7 -12 -5 -15 -3 -9 6 6 10 3
11 -14 1 -12 -6 -54 -11 -94 -11 -119 0 -618 -9 -680 -12 -60 -3 -72 3 -72 37
0 11 -6 21 -13 23 -8 3 -10 -1 -5 -13 4 -11 3 -15 -5 -10 -6 3 -17 -2 -24 -12
-14 -20 -49 -25 -59 -9 -4 5 -12 6 -19 2 -9 -6 -9 -9 1 -15 7 -5 -7 -8 -34 -8
-48 0 -62 12 -27 23 11 3 20 11 20 16 0 13 -18 11 -23 -3 -3 -10 -7 -10 -17
-1 -9 9 -7 14 10 23 12 7 19 18 16 26 -3 8 -1 14 4 14 6 0 10 -9 10 -20 0 -11
4 -20 9 -20 12 0 23 29 15 41 -3 5 5 9 17 9 18 0 19 -2 9 -15 -7 -8 -9 -22 -6
-31 5 -13 9 -14 21 -4 10 9 15 9 15 1 0 -6 7 -11 16 -11 10 0 14 7 12 23 -2
12 -9 21 -16 19 -6 -1 -12 3 -12 9 0 6 7 9 15 6 8 -4 17 -2 20 3 3 4 11 7 18
6 21 -3 38 -17 32 -27 -4 -5 -1 -9 5 -9 6 0 10 8 8 18 -2 13 5 18 31 20 31 3
33 2 28 -20 -6 -23 -6 -23 13 2 10 14 22 22 26 18 3 -4 -1 -14 -10 -23 -24
-24 -19 -31 6 -9 20 18 21 18 15 1 -4 -12 -3 -16 4 -11 6 3 9 15 6 25 -5 17 1
19 44 19 55 0 65 -2 62 -12 -2 -4 8 -1 22 6 16 8 67 13 142 13 65 0 101 -2 81
-4 -44 -5 -68 -27 -49 -46 10 -9 11 -8 6 5 -5 14 3 18 50 23 35 5 52 11 44 16
-12 7 5 10 99 17 12 1 22 -4 23 -10z m2876 -445 c-4 -137 -14 -410 -22 -608
-8 -198 -17 -447 -21 -553 -4 -106 -11 -195 -15 -198 -5 -3 -7 1 -5 8 3 7 7
128 11 268 3 140 12 471 20 735 8 264 15 506 15 538 0 36 4 57 12 57 8 0 9
-63 5 -247z m-4757 72 c0 -65 -31 -189 -63 -255 -38 -77 -156 -239 -188 -258
-21 -13 -21 -13 -16 15 4 15 14 71 22 123 9 52 18 105 21 117 2 12 38 58 79
103 41 45 75 86 75 91 0 5 7 9 15 9 9 0 15 9 15 25 0 26 19 65 32 65 5 0 8
-16 8 -35z m1021 -352 l2 -28 4 28 c4 27 7 28 51 25 l47 -3 3 -48 3 -47 -200
0 c-200 1 -201 1 -202 23 l-2 22 -4 -22 c-4 -19 -12 -21 -96 -25 -51 -3 -240
-5 -420 -7 l-328 -2 18 25 c10 14 21 26 26 26 4 0 7 6 7 14 0 17 22 26 61 26
16 0 29 -5 29 -12 0 -10 2 -10 8 0 6 9 36 12 105 10 53 -2 97 0 97 3 0 3 23 3
50 -1 28 -4 50 -3 50 1 0 4 104 7 231 7 127 0 233 2 235 4 2 2 53 5 114 6
l110 2 1 -27z m-1491 -923 c13 -52 32 -120 44 -150 11 -30 21 -71 21 -91 1
-23 12 -54 30 -81 16 -23 32 -60 36 -81 6 -36 4 -40 -25 -58 -17 -10 -64 -33
-105 -50 -59 -25 -75 -28 -82 -17 -5 7 -7 19 -4 27 3 8 0 11 -8 8 -10 -4 -12
14 -9 82 6 128 5 146 -11 177 -13 26 -12 38 9 124 34 133 65 223 74 213 4 -4
18 -51 30 -103z m-2601 76 c-153 -147 -396 -359 -559 -490 -47 -38 -127 -110
-179 -160 -77 -74 -84 -79 -36 -26 68 75 113 117 371 336 104 89 238 207 298
263 60 56 112 99 114 96 3 -3 -1 -12 -9 -19z m1741 -565 c19 -73 70 -186 92
-204 11 -10 18 -20 15 -24 -7 -6 -83 56 -135 110 -27 27 -34 43 -35 79 -3 78
44 107 63 39z m2181 -1321 c5 0 9 -8 9 -18 0 -10 21 -34 48 -55 26 -20 76 -61
112 -92 36 -30 107 -75 159 -101 92 -45 121 -67 305 -240 79 -73 236 -157 368
-195 42 -13 75 -26 72 -31 -7 -11 -130 -10 -195 2 -30 6 -59 17 -65 26 -8 10
-20 13 -38 8 -43 -10 -156 39 -156 68 0 16 -5 19 -24 14 -34 -8 -116 67 -145
134 -29 68 -53 81 -137 79 -64 -2 -76 2 -174 50 -113 55 -190 107 -215 144
-17 27 -33 101 -16 77 8 -11 11 -3 11 37 0 44 5 56 33 86 22 25 33 31 35 21 2
-8 8 -14 13 -14z m-3557 -340 c44 -52 58 -138 32 -188 -24 -46 -108 -117 -214
-182 -91 -56 -106 -62 -144 -58 -56 6 -97 -8 -103 -35 -2 -12 -9 -48 -16 -80
-12 -65 -65 -137 -100 -137 -12 0 -19 -7 -19 -19 0 -26 -104 -91 -146 -91 -19
0 -34 -6 -37 -14 -7 -18 -118 -54 -192 -62 -89 -11 -147 16 -67 31 113 21 352
163 399 238 42 68 167 219 214 260 58 51 179 129 179 117 0 -6 5 -10 11 -10 6
0 9 8 7 18 -2 10 27 53 74 110 43 51 78 101 78 112 0 28 14 25 44 -10z"/>
<path d="M7883 1415 c-9 -25 21 -48 125 -99 108 -51 154 -61 160 -34 2 12 -12
25 -48 43 -29 15 -49 22 -45 16 10 -17 -8 -13 -56 12 -24 13 -44 29 -44 36 0
15 -42 40 -68 41 -10 0 -20 -7 -24 -15z"/>
</g>
</svg>
