<?xml version="1.0" standalone="no"?>
<!DOCTYPE svg PUBLIC "-//W3C//DTD SVG 20010904//EN"
 "http://www.w3.org/TR/2001/REC-SVG-20010904/DTD/svg10.dtd">
<svg version="1.0" xmlns="http://www.w3.org/2000/svg"
 width="1200.000000pt" height="800.000000pt" viewBox="0 0 1200.000000 800.000000"
 preserveAspectRatio="xMidYMid meet">
<metadata>
Created by potrace 1.15, written by Peter Selinger 2001-2017
</metadata>
<g transform="translate(0.000000,800.000000) scale(0.100000,-0.100000)"
fill="#000000" stroke="none">
<path d="M0 4000 l0 -4000 6000 0 6000 0 0 4000 0 4000 -192 -2 -192 -3 -132
-484 c-72 -266 -138 -487 -145 -492 -16 -10 -39 -12 -39 -3 0 3 32 126 71 273
39 146 92 349 119 451 27 102 54 201 60 220 5 19 10 36 10 37 0 2 -121 3 -268
3 l-269 0 -52 -232 c-29 -128 -80 -354 -113 -503 -33 -148 -64 -274 -69 -279
-11 -12 -111 6 -116 21 -3 9 7 12 34 10 37 -2 38 -1 41 33 2 19 -4 61 -14 93
-19 64 -15 76 20 58 13 -8 29 -10 35 -7 16 10 13 81 -5 148 -9 32 -14 61 -11
64 3 4 19 -4 34 -16 l28 -22 3 32 c3 24 -6 43 -35 82 l-38 50 -300 -6 c-165
-4 -347 -9 -405 -12 -58 -2 -393 -6 -745 -9 -352 -2 -658 -6 -680 -9 -55 -8
-387 -25 -510 -27 -55 0 -124 4 -154 10 -63 13 -758 -4 -856 -20 -33 -6 -139
-15 -235 -20 -96 -5 -186 -15 -199 -22 l-23 -12 23 -6 c13 -4 53 -5 89 -3 l65
3 -60 -9 c-33 -5 -87 -14 -120 -19 -57 -9 -404 -5 -414 4 -2 3 34 6 80 6 46 1
98 4 114 8 154 35 -1090 36 -1270 1 -43 -9 -290 -26 -660 -46 -55 -3 -217 -13
-360 -23 l-260 -18 -52 26 c-29 14 -53 28 -53 31 0 9 1086 69 2100 115 672 30
709 32 1320 50 837 26 1204 34 1935 45 391 6 787 12 880 15 94 2 182 4 196 5
25 0 26 2 62 197 21 109 37 201 37 206 0 4 -1625 7 -3610 7 l-3610 0 5 -22
c37 -160 134 -642 130 -647 -2 -5 14 -5 38 -1 23 5 113 11 200 15 125 6 157 5
157 -6 0 -7 6 -20 14 -28 13 -14 10 -16 -29 -16 -24 0 -47 3 -51 8 -13 12 -54
8 -60 -7 -4 -10 -35 -16 -112 -20 -59 -4 -123 -9 -143 -12 -34 -5 -37 -3 -42
25 -4 18 -13 31 -22 31 -8 0 -15 1 -15 3 -1 27 -60 340 -91 485 l-42 192
-1513 0 -1514 0 0 -4000z m6675 3886 c83 -7 139 -15 125 -18 -80 -19 -377 -34
-570 -28 l-75 2 70 14 c39 8 108 18 153 23 46 5 86 12 90 15 7 8 24 7 207 -8z
m-3170 -213 c4 -16 17 -82 30 -148 13 -66 29 -121 34 -123 6 -2 11 -8 11 -13
0 -5 -18 2 -40 16 -41 26 -55 31 -46 16 7 -10 -195 -24 -205 -14 -8 9 -59 225
-59 253 0 13 11 17 48 19 26 2 79 6 117 11 39 4 77 8 86 9 11 0 20 -10 24 -26z
m323 -623 c12 -63 24 -128 26 -145 10 -68 17 -103 30 -165 7 -36 12 -70 9 -77
-3 -6 -120 -50 -261 -96 -194 -64 -260 -82 -269 -73 -18 17 -124 508 -112 522
5 6 39 19 76 28 38 10 133 37 213 61 206 61 254 73 261 66 3 -3 15 -58 27
-121z m147 -507 c54 -27 67 -44 70 -91 1 -21 -16 -28 -218 -94 -213 -70 -220
-71 -234 -53 -7 11 -19 20 -26 20 -7 0 -27 9 -44 20 -31 18 -35 26 -37 71 -1
13 47 32 209 84 116 37 213 68 217 69 4 0 32 -11 63 -26z m-815 -3061 c0 -14
-96 -103 -103 -96 -4 4 -7 1 -7 -6 0 -7 -24 -40 -54 -74 -29 -34 -61 -76 -70
-93 -9 -18 -20 -33 -25 -33 -5 0 -21 -18 -36 -40 -15 -22 -32 -37 -38 -33 -6
3 -7 1 -3 -6 4 -6 -1 -23 -12 -39 -23 -32 -107 -197 -117 -230 -3 -12 -10 -20
-15 -17 -11 7 50 151 97 230 93 154 134 208 247 322 114 115 136 134 136 115z
m6381 -107 c150 -401 148 -396 137 -452 -13 -64 4 -60 -283 -68 -215 -6 -382
-12 -585 -20 -63 -3 -220 -8 -347 -11 -222 -6 -233 -5 -234 12 0 16 -2 16 -9
-3 -9 -21 -15 -22 -132 -22 -68 0 -153 -3 -190 -7 -62 -6 -68 -5 -69 12 -1 17
-2 17 -6 2 -4 -15 -16 -18 -64 -18 l-59 0 -2 33 -1 32 -4 -32 c-4 -31 -7 -33
-41 -33 -20 0 -47 -3 -59 -6 -21 -6 -23 -3 -24 32 l-2 39 -6 -35 -6 -35 -62
-3 c-55 -3 -63 -1 -64 15 -1 17 -2 17 -6 1 -4 -15 -16 -18 -64 -18 l-59 0 -1
93 c-1 50 -3 155 -4 233 -1 77 -5 147 -10 154 -4 7 -8 41 -9 76 l-2 64 31 0
31 0 13 -122 c20 -195 22 -207 40 -210 13 -3 20 -30 33 -128 14 -103 17 -111
12 -45 -2 44 -7 101 -11 128 -5 39 -3 47 11 47 20 0 20 11 1 170 -19 162 -20
157 11 164 15 4 28 5 30 3 3 -2 14 -78 25 -168 12 -90 25 -166 29 -169 4 -3
10 -12 13 -20 4 -12 6 -11 6 3 1 11 9 17 26 17 30 0 30 -10 5 174 -11 81 -20
152 -20 157 0 5 13 9 30 9 30 0 31 -1 44 -70 3 -14 3 -4 2 23 l-4 47 33 0 c38
0 35 10 60 -165 24 -168 23 -165 51 -165 16 0 24 -6 25 -17 0 -14 2 -15 6 -3
3 8 10 18 15 21 5 3 -3 75 -17 163 -14 86 -25 161 -25 166 0 6 15 10 34 10 41
0 38 9 70 -183 15 -92 31 -153 40 -163 9 -8 16 -11 16 -5 0 6 9 11 19 11 11 0
22 4 25 8 4 7 -31 229 -49 310 -5 20 -2 22 30 22 21 0 35 -5 35 -12 0 -9 3
-10 8 -2 4 6 19 14 34 18 32 7 34 2 68 -184 28 -150 28 -150 52 -150 11 0 27
-8 35 -17 8 -10 12 -12 8 -5 -4 7 -2 18 3 25 7 8 1 58 -19 157 -16 80 -32 153
-35 163 -4 14 1 17 29 17 l34 0 32 -147 c17 -82 31 -154 31 -161 0 -17 42 -32
69 -25 14 4 20 11 17 22 -9 27 -66 290 -66 301 0 5 13 10 30 10 33 0 31 7 76
-195 15 -66 31 -125 35 -131 13 -16 69 -5 69 15 0 9 -16 81 -35 161 -19 80
-35 148 -35 152 0 4 31 7 70 7 l69 0 10 -37 c6 -20 24 -94 41 -164 31 -122 33
-126 61 -130 60 -9 60 -7 3 203 -19 69 -34 129 -34 132 0 4 15 7 34 7 40 0 35
10 91 -194 34 -127 46 -151 73 -141 8 3 20 5 28 5 19 0 13 34 -33 189 -18 63
-33 120 -33 128 0 11 15 13 67 11 l68 -3 45 -150 c25 -82 48 -154 52 -160 3
-5 21 -10 40 -10 31 0 33 3 30 30 -2 17 -21 87 -42 157 -22 69 -40 131 -40
138 0 6 11 10 27 8 26 -3 30 -11 79 -163 l52 -160 37 -3 37 -3 -7 48 c-4 26
-24 97 -46 157 -21 60 -39 113 -39 118 0 16 49 8 59 -9 5 -10 30 -81 57 -158
26 -77 52 -143 56 -146 5 -3 22 -3 38 -1 29 4 30 6 24 41 -3 20 -21 80 -41
134 -19 55 -39 112 -43 127 l-8 29 91 -2 91 -2 37 -100z m-2346 8 c3 -15 8
-56 10 -92 14 -219 15 -221 45 -221 27 0 27 -1 33 -82 4 -46 7 -108 7 -139 0
-63 -7 -69 -82 -69 l-38 0 -2 73 -2 72 -3 -72 -4 -73 -59 0 -58 0 -7 40 c-4
21 -4 43 -1 48 2 4 1 14 -5 22 -6 10 -9 -6 -9 -47 l0 -63 -59 0 c-48 0 -60 3
-64 18 -4 13 -5 11 -6 -5 0 -13 -5 -23 -11 -23 -14 0 -12 17 4 48 8 15 31 90
52 167 43 163 53 187 54 128 0 -23 4 -43 10 -45 5 -1 14 -39 19 -83 l9 -80 -1
80 c-2 77 -1 80 22 83 l24 4 -8 96 c-16 190 -11 232 30 232 14 0 25 -7 28 -17
4 -14 5 -12 6 5 1 17 7 22 30 22 23 0 30 -5 36 -27z m-3785 9 c0 -35 -83 -71
-314 -136 -70 -20 -92 -23 -98 -13 -4 6 -6 16 -5 21 2 5 82 33 178 62 96 29
185 57 199 63 32 12 40 13 40 3z m3561 -9 c0 -10 3 -27 6 -38 2 -11 5 -29 6
-40 3 -30 -76 -334 -85 -329 -4 3 -8 -13 -8 -36 0 -23 -12 -67 -29 -105 -27
-59 -32 -65 -60 -65 l-31 0 -2 63 -2 62 -3 -62 -4 -63 -59 0 -60 0 -2 33 -1
32 -4 -32 -4 -33 -60 0 c-57 0 -59 1 -60 28 l-1 27 -7 -30 c-6 -28 -9 -30 -60
-33 -37 -2 -57 1 -62 10 -7 10 -9 10 -9 1 0 -9 -20 -13 -65 -13 l-65 0 -2 188
-3 187 -2 -187 -3 -188 -58 0 c-31 0 -87 -3 -124 -7 l-68 -6 0 49 c0 27 -4 55
-9 63 -6 9 -7 -8 -4 -47 l6 -61 -127 0 c-112 0 -126 2 -127 17 -1 16 -2 16 -6
0 -3 -14 -15 -18 -48 -18 -24 0 -50 -3 -59 -6 -11 -4 -16 0 -17 12 -1 17 -2
17 -6 2 -4 -15 -16 -18 -64 -18 -49 0 -59 3 -60 18 -1 16 -2 16 -6 0 -4 -15
-16 -18 -64 -18 -40 0 -59 4 -59 13 0 9 -2 9 -8 0 -6 -9 -37 -13 -98 -12 -49
0 -102 -3 -118 -7 -19 -5 -31 -2 -37 7 -6 10 -9 11 -9 2 0 -9 -19 -13 -59 -13
l-59 0 -9 54 c-8 46 -4 89 28 273 21 120 38 219 39 220 1 6 62 34 66 31 2 -2
-7 -66 -20 -141 -12 -75 -21 -139 -18 -142 3 -3 14 -5 24 -5 10 0 18 -6 18
-12 0 -7 9 1 19 17 11 18 27 84 40 170 12 77 26 144 30 148 4 4 21 9 37 10 21
1 28 -2 27 -13 -1 -8 -11 -79 -23 -158 -19 -129 -19 -144 -5 -158 8 -8 15 -11
15 -5 0 6 11 11 24 11 22 0 25 5 36 88 7 48 18 121 24 162 l11 75 34 3 c33 3
33 3 28 -30 -4 -18 -8 -62 -11 -98 -4 -51 -4 -57 3 -25 5 22 12 66 16 98 6 55
8 57 36 57 35 0 34 5 14 -155 -21 -168 -20 -175 10 -175 14 0 25 -6 25 -12 0
-7 6 -4 13 7 8 11 19 74 26 140 20 199 19 195 52 195 35 0 34 6 14 -180 -8
-74 -15 -138 -15 -142 0 -5 7 -8 15 -8 11 0 15 -14 17 -57 1 -37 3 -45 5 -23
6 60 13 80 28 80 16 0 20 21 35 180 15 160 15 160 51 160 28 0 30 -2 25 -32
-13 -80 -26 -292 -19 -298 4 -4 23 -6 41 -3 28 5 32 9 33 37 0 17 6 90 12 161
l12 130 33 3 c25 3 32 -1 33 -15 1 -17 2 -17 6 0 3 11 14 17 35 17 l31 0 -7
-132 c-4 -73 -10 -148 -13 -165 -5 -30 -3 -33 21 -33 25 0 26 -2 28 -72 l2
-73 3 70 c3 48 9 72 19 78 10 6 14 30 15 95 1 48 4 121 8 162 l6 75 34 0 33 0
-1 -125 c-1 -69 -4 -140 -7 -158 -4 -18 -1 -38 4 -45 6 -7 13 -46 15 -87 l3
-75 2 77 c2 71 4 77 25 80 27 4 35 46 36 200 1 58 4 113 7 122 4 10 18 16 35
16 l29 0 2 -122 2 -123 3 123 4 122 32 0 32 0 -3 -165 -4 -165 26 0 c26 0 26
-1 28 -82 l2 -83 3 75 c2 41 8 79 13 84 6 6 10 78 10 162 0 84 3 159 6 168 4
10 18 16 35 16 l29 0 0 -170 c0 -144 2 -170 15 -170 12 0 15 -14 15 -65 0 -37
4 -65 10 -65 6 0 10 28 10 64 0 48 4 65 15 70 13 5 16 28 15 148 -1 79 -1 153
0 166 0 18 6 22 29 22 20 0 31 -6 35 -17 2 -10 5 -83 5 -162 0 -79 4 -147 8
-151 4 -5 22 -6 38 -3 l30 5 -4 164 -3 164 31 0 c22 0 31 -5 32 -17 1 -17 2
-17 6 0 3 12 14 17 37 17 l33 0 6 -112 c4 -62 7 -137 7 -165 0 -50 2 -53 25
-53 19 0 25 -6 26 -22 l2 -23 4 23 c2 12 9 22 14 22 10 0 11 136 1 193 -4 21
-5 63 -4 93 l4 54 34 0 c25 0 34 -4 35 -17z m474 -633 c-3 -5 -24 -14 -46 -20
-35 -10 -44 -9 -62 7 -11 10 -17 12 -13 6 5 -9 1 -12 -11 -11 -10 1 -54 -1
-98 -5 -44 -4 -136 -10 -205 -13 -69 -4 -140 -7 -158 -8 -31 -2 -31 -2 -18 18
12 19 26 21 172 26 297 10 445 10 439 0z m-635 -8 c0 -5 -8 -16 -18 -26 -17
-14 -47 -16 -288 -11 -295 5 -360 8 -371 18 -3 4 25 8 63 8 144 3 521 14 567
17 26 2 47 -1 47 -6z m-2370 -139 c0 -10 -32 -54 -72 -98 -219 -246 -441 -535
-583 -760 -117 -184 -209 -312 -310 -432 -110 -131 -381 -410 -390 -401 -4 4
62 80 145 170 249 266 345 388 520 663 109 171 275 397 411 560 87 104 272
315 276 315 2 0 3 -8 3 -17z"/>
</g>
</svg>
