<?xml version="1.0" standalone="no"?>
<!DOCTYPE svg PUBLIC "-//W3C//DTD SVG 20010904//EN"
 "http://www.w3.org/TR/2001/REC-SVG-20010904/DTD/svg10.dtd">
<svg version="1.0" xmlns="http://www.w3.org/2000/svg"
 width="1200.000000pt" height="800.000000pt" viewBox="0 0 1200.000000 800.000000"
 preserveAspectRatio="xMidYMid meet">
<metadata>
Created by potrace 1.15, written by Peter Selinger 2001-2017
</metadata>
<g transform="translate(0.000000,800.000000) scale(0.100000,-0.100000)"
fill="#000000" stroke="none">
<path d="M0 4000 l0 -4000 6000 0 6000 0 0 1312 0 1311 -707 -6 c-390 -4 -929
-10 -1200 -14 -438 -5 -493 -5 -507 9 -17 17 -17 15 -11 198 9 244 18 645 16
675 -1 17 -2 40 -2 53 1 12 1 32 2 45 0 12 -2 49 -5 82 -10 106 -24 557 -31
1000 -6 347 -12 455 -27 455 -6 0 -8 7 -5 15 4 8 2 17 -3 20 -6 4 -9 36 -9 73
1 37 3 56 6 42 14 -93 9 -85 58 -82 31 3 46 0 49 -9 5 -16 22 -663 36 -1364 5
-269 12 -575 15 -680 3 -104 5 -232 5 -284 l0 -94 575 8 c413 5 575 4 575 -4
0 -6 7 -11 16 -11 8 0 13 4 10 9 -3 4 82 9 188 10 106 1 207 4 224 6 18 2 34
0 37 -6 4 -5 11 -7 16 -3 18 11 173 10 188 -1 11 -7 13 -7 7 3 -5 8 1 12 18
12 14 0 26 -4 26 -10 0 -11 53 -14 64 -3 12 12 40 12 55 0 12 -9 13 -9 7 1 -5
9 3 12 29 12 22 0 34 -4 30 -10 -3 -5 1 -10 9 -10 9 0 16 4 16 9 0 6 29 9 65
8 36 -1 65 -5 65 -9 0 -5 7 -8 16 -8 8 0 12 5 9 10 -4 6 9 10 32 9 21 0 32 -3
26 -6 -18 -7 -16 -23 3 -23 14 0 15 78 10 823 -6 963 -4 875 -16 882 -6 4 -10
-35 -11 -99 -1 -58 -3 -132 -5 -163 -3 -32 -7 -301 -10 -598 -3 -297 -9 -553
-14 -570 -5 -17 -9 252 -9 645 -1 371 -4 861 -7 1088 l-6 412 25 0 c16 0 27
-6 29 -17 4 -15 11 111 11 182 0 80 -15 567 -18 595 -2 19 -7 493 -11 1053
l-7 1017 -39 0 c-22 0 -37 -4 -34 -8 5 -8 24 -1348 29 -1979 2 -204 -1 -333
-7 -333 -5 0 -7 -3 -4 -6 4 -3 2 -19 -2 -36 -5 -16 -10 -85 -11 -151 -2 -185
-16 -243 -18 -77 -2 172 -18 780 -26 970 -6 144 -19 239 -36 273 -6 10 -6 17
0 17 5 0 11 -6 14 -12 11 -33 12 55 7 800 l-3 542 -621 0 -621 0 7 -187 c18
-464 49 -1401 58 -1743 5 -206 12 -436 14 -512 4 -125 3 -137 -14 -141 -17 -4
-18 8 -24 157 -3 88 -8 280 -11 426 -6 261 -36 1147 -55 1615 -5 132 -10 273
-10 313 l0 72 -520 0 -520 0 0 -28 c0 -28 56 -1174 63 -1295 3 -37 1 -69 -2
-72 -4 -2 -32 2 -62 8 l-54 13 0 54 c-1 91 -5 96 -88 105 -52 5 -78 12 -94 27
-19 18 -32 20 -100 16 l-79 -4 -23 485 c-12 267 -25 532 -28 589 l-6 102
-2293 0 -2292 0 -4 -76 c-2 -41 0 -78 3 -82 4 -4 12 -97 18 -207 6 -110 22
-373 36 -585 30 -468 30 -440 7 -440 -16 0 -20 28 -41 343 -12 188 -28 419
-36 512 -8 94 -19 242 -25 330 -6 88 -13 170 -15 183 l-5 22 -523 0 -522 0 4
-91 c2 -68 0 -94 -10 -100 -7 -4 -16 -32 -20 -61 l-6 -53 -2 58 c-1 42 -5 57
-15 57 -16 0 -32 106 -24 160 l5 30 -1634 0 -1633 0 0 -4000z m6246 3077 c41
-21 102 -90 110 -124 4 -16 11 -34 17 -40 6 -9 6 -13 -1 -13 -6 0 -14 5 -17
10 -9 15 -62 12 -98 -6 -71 -36 -117 -70 -117 -86 0 -10 2 -18 4 -18 2 0 36
18 75 41 55 31 78 40 108 37 30 -2 38 -7 38 -23 0 -13 -5 -19 -15 -16 -26 6
-82 2 -117 -10 -36 -12 -53 -34 -49 -65 3 -16 11 -19 52 -18 69 1 134 23 134
44 0 31 48 12 59 -24 22 -66 23 -110 4 -171 -23 -72 -30 -175 -13 -185 19 -12
-21 -89 -75 -142 -60 -60 -116 -82 -190 -76 -52 4 -60 9 -111 59 -54 53 -103
117 -117 152 -6 16 -5 16 19 1 37 -25 41 -9 4 18 -39 28 -89 133 -97 202 -6
45 -4 49 12 43 9 -4 23 -3 29 2 6 5 13 10 16 10 27 2 70 26 70 38 0 13 3 13
15 3 21 -17 29 -7 16 18 -13 25 -51 39 -61 22 -7 -12 -70 -6 -99 10 -26 14 79
22 130 10 63 -15 74 -34 60 -103 -19 -99 -10 -167 22 -167 7 0 7 4 -1 12 -7 7
-11 21 -11 32 1 16 2 17 6 5 2 -10 12 -19 21 -22 9 -3 24 -8 33 -11 9 -4 25 2
39 14 13 11 27 20 32 20 4 0 8 5 8 10 0 18 -28 11 -44 -11 -10 -15 -20 -19
-35 -14 -24 7 -27 16 -40 118 -19 138 -43 158 -198 166 -17 1 -21 7 -21 39 0
20 -3 55 -6 77 -7 45 7 65 69 98 41 22 176 66 214 70 17 2 34 7 38 10 3 4 16
-1 27 -12 12 -10 35 -26 52 -34z m168 -839 c-1 -13 -6 -45 -9 -73 -4 -27 -9
-53 -12 -58 -3 -5 -7 -35 -9 -67 -2 -33 -9 -72 -15 -87 -7 -15 -12 -72 -13
-126 l-1 -99 29 6 c30 6 96 63 177 153 l47 51 6 -41 c4 -23 9 -78 11 -122 3
-44 10 -105 15 -135 22 -115 42 -206 51 -225 13 -28 -26 -125 -103 -252 -84
-140 -197 -253 -253 -253 -31 0 -57 60 -64 150 -4 45 -10 74 -17 73 -6 -1 -9
10 -6 26 2 16 -3 41 -11 57 -8 16 -12 35 -10 41 5 14 -25 49 -34 39 -3 -3 0
-12 7 -20 6 -9 10 -21 7 -28 -3 -8 -6 -6 -6 5 -1 13 -6 17 -20 12 -14 -4 -23
1 -33 17 -7 13 -11 26 -10 31 1 4 -2 7 -7 7 -12 0 -40 146 -40 215 0 33 3 74
8 90 8 29 9 28 15 -20 12 -79 15 -76 15 15 0 47 1 96 2 110 1 14 -1 32 -5 41
-5 10 -2 16 8 16 8 0 14 -3 12 -6 -2 -3 7 -17 21 -31 l24 -25 -23 65 c-12 36
-43 97 -69 135 -61 93 -76 124 -89 181 -6 27 -13 57 -16 67 -5 17 -4 18 24 3
16 -8 39 -28 51 -43 20 -26 22 -27 35 -10 7 9 26 17 43 17 16 0 56 7 88 16 33
9 68 16 77 16 9 0 33 19 53 44 41 49 54 55 49 22z m213 -42 c6 -32 15 -62 20
-67 12 -12 53 17 53 37 0 8 4 13 10 9 5 -3 18 3 29 14 10 10 34 22 51 26 29 6
32 5 26 -10 -5 -15 -4 -16 8 -6 16 14 70 -9 122 -52 16 -13 44 -29 63 -37 18
-7 63 -43 100 -79 59 -59 69 -74 90 -141 13 -41 27 -79 31 -85 18 -23 154
-381 165 -435 2 -8 19 -44 39 -78 20 -35 36 -68 36 -73 0 -6 9 -27 20 -49 11
-22 20 -48 20 -59 0 -12 14 -65 31 -118 30 -94 31 -103 26 -218 -5 -116 -9
-130 -92 -400 -48 -154 -93 -314 -101 -355 -8 -41 -19 -89 -24 -106 -22 -68
-8 -328 30 -569 12 -79 20 -336 10 -310 -8 19 -9 19 -9 -2 -1 -12 4 -23 10
-25 8 -3 7 -13 -4 -35 -9 -17 -14 -32 -12 -34 2 -3 9 -54 15 -114 11 -107 11
-110 -11 -127 -24 -20 -92 -24 -135 -8 l-26 10 5 135 c2 75 1 138 -4 141 -5 3
-10 33 -10 67 -2 56 -2 58 -9 22 -6 -40 -6 -40 -14 -11 -5 15 -6 90 -2 165 7
151 7 405 1 581 l-4 115 28 -85 c16 -47 29 -82 30 -79 1 4 -21 98 -48 210 -27
112 -74 317 -105 454 -30 138 -57 259 -59 270 -3 11 -5 -5 -6 -35 -2 -83 -21
-101 -21 -20 0 37 5 71 11 77 8 8 9 52 3 150 l-7 138 -16 -70 c-9 -38 -19 -74
-22 -80 -4 -5 -10 -54 -14 -107 -4 -54 -11 -98 -16 -98 -5 0 -9 -7 -9 -16 0
-8 5 -12 10 -9 10 6 13 -25 10 -100 -2 -66 -28 -160 -70 -264 -22 -53 -40
-103 -40 -109 0 -7 -5 -12 -12 -12 -9 0 -9 -3 -1 -11 7 -7 8 -19 3 -33 -5 -11
-12 -42 -15 -68 -3 -27 -11 -48 -17 -48 -5 0 -8 -7 -4 -15 3 -9 0 -15 -9 -15
-19 0 -37 -53 -26 -75 14 -26 16 -55 7 -100 -9 -37 -14 -46 -44 -80 -7 -8 -11
-19 -7 -24 3 -6 -1 -13 -8 -18 -15 -9 -57 -85 -57 -104 0 -6 -7 -26 -16 -45
-9 -19 -14 -42 -12 -52 5 -19 -14 -42 -34 -41 -7 0 -8 3 -2 5 5 2 9 18 8 35
-3 37 13 99 31 119 11 14 25 53 31 90 2 8 6 33 9 55 4 22 8 46 11 53 2 7 3 13
2 15 -6 10 27 47 42 47 26 0 25 15 0 33 -14 10 -21 25 -20 48 0 19 -1 56 -3
83 -3 41 -1 50 15 54 10 2 18 12 18 21 0 14 2 14 10 1 7 -11 10 -7 10 17 0 17
-6 34 -12 37 -9 4 -10 8 -2 11 7 3 10 23 8 47 -2 23 1 47 7 55 6 7 8 13 3 13
-5 0 -2 5 6 10 13 9 13 11 0 20 -12 8 -13 13 -2 30 6 11 12 29 12 40 0 11 5
20 11 20 6 0 8 8 4 20 -3 10 0 38 6 62 17 55 18 79 8 98 -4 8 -11 28 -14 44
-3 16 -14 30 -25 33 -21 5 -29 33 -24 78 2 17 5 47 7 67 2 20 12 48 20 62 9
14 28 59 42 100 26 79 31 150 16 232 -9 48 1 121 40 292 12 53 11 57 -21 122
-4 8 -11 15 -15 15 -10 0 -65 -103 -66 -124 -2 -40 -31 89 -54 243 -29 191
-34 324 -13 337 22 14 33 -9 15 -29 -21 -23 -15 -31 18 -24 29 5 30 10 10 36
-8 11 -15 31 -15 44 0 19 -4 23 -17 17 -10 -5 -38 -13 -63 -20 -27 -7 -46 -19
-48 -29 -2 -9 1 -16 7 -16 6 0 11 -8 11 -17 0 -15 -2 -16 -10 -3 -9 13 -10 13
-10 0 -1 -48 -26 -98 -77 -152 -55 -57 -81 -73 -69 -42 3 9 8 28 11 42 3 17 0
13 -9 -11 -15 -36 -38 -67 -51 -67 -7 0 5 102 15 115 4 6 10 25 14 43 7 42 35
102 47 102 5 0 9 -14 9 -31 l0 -30 30 33 c23 25 33 30 39 20 7 -11 10 -10 15
3 11 30 6 35 -34 35 -61 0 -82 27 -74 93 3 29 11 64 17 79 11 26 14 27 77 25
l65 -2 12 -59z m-1162 -276 c4 -6 1 -9 -7 -8 -8 2 -13 -7 -13 -24 1 -14 -3
-24 -7 -22 -4 3 -8 -7 -8 -23 0 -15 -7 -41 -16 -58 -9 -16 -17 -59 -19 -95 -3
-54 -2 -60 7 -37 5 16 20 39 33 53 22 24 24 24 30 5 3 -11 -1 -36 -9 -55 l-15
-36 25 16 c13 9 24 21 24 27 0 6 3 8 6 5 3 -4 0 -16 -6 -28 -9 -17 -9 -21 0
-15 6 4 16 18 21 32 17 46 18 20 2 -64 -15 -76 -13 -112 5 -88 11 16 32 16 32
0 0 -27 16 -16 29 21 9 24 16 32 21 24 8 -13 13 -8 35 35 16 30 33 24 60 -21
l25 -42 -20 -25 c-28 -35 -25 -42 6 -18 l27 21 23 -25 c32 -35 36 -31 18 14
-9 22 -14 50 -11 63 3 16 5 13 6 -12 1 -27 4 -31 11 -20 8 12 10 12 11 -5 1
-11 2 -27 3 -35 2 -8 3 -26 5 -40 2 -24 2 -24 16 -6 8 11 13 28 9 38 -8 27 5
63 19 49 8 -8 8 -14 -1 -23 -7 -7 -12 -16 -12 -22 0 -6 5 -5 12 2 10 10 15 7
26 -10 12 -21 11 -9 -4 27 -3 8 -1 15 5 15 6 0 8 7 4 17 -4 11 -3 14 5 9 7 -4
12 -24 12 -44 0 -20 9 -61 20 -90 11 -29 20 -64 20 -78 0 -14 4 -23 8 -20 5 3
17 -9 27 -27 11 -18 27 -40 36 -51 10 -10 20 -35 24 -55 7 -42 24 -77 25 -51
1 9 6 5 15 -10 l15 -25 -6 27 c-3 15 -1 35 4 45 10 17 11 17 17 1 4 -10 11
-16 15 -13 5 3 11 1 15 -5 9 -14 28 -12 22 3 -6 16 10 57 22 57 16 0 32 -38
33 -73 0 -18 4 -36 8 -42 19 -25 21 -78 5 -130 -20 -61 -24 -62 -85 -2 -71 69
-270 325 -270 347 0 6 9 30 20 52 27 56 25 82 -3 38 -12 -20 -52 -74 -89 -121
-75 -96 -82 -110 -92 -188 -4 -30 -18 -81 -32 -114 -28 -71 -28 -67 -10 -67 7
0 17 10 20 23 6 18 12 8 32 -53 14 -41 27 -93 29 -115 1 -22 7 -58 13 -80 6
-22 10 -58 9 -80 0 -26 12 -70 36 -125 44 -101 58 -176 47 -245 -19 -108 -56
-504 -70 -750 -21 -348 -36 -464 -75 -550 -7 -16 -24 -83 -36 -147 -21 -109
-25 -118 -46 -118 -37 0 -129 39 -164 70 -30 26 -34 34 -33 77 1 26 4 62 7 78
3 17 6 37 7 45 1 8 8 -3 16 -25 l14 -40 -6 55 c-3 30 -14 67 -25 82 -21 30
-47 165 -79 408 -11 85 -27 175 -34 200 -8 25 -24 97 -36 160 -20 107 -55 275
-86 415 -7 33 -29 114 -48 180 -155 532 -174 605 -201 780 -10 61 -28 135 -41
166 -25 59 -31 113 -14 124 5 3 35 56 66 116 56 109 150 249 168 249 5 0 18 8
28 17 12 10 22 13 26 8 10 -14 36 -12 58 5 19 14 19 14 0 -7 -10 -13 -22 -20
-27 -18 -8 5 -21 -27 -24 -58 -1 -13 8 -9 35 18 20 19 39 33 42 30 3 -3 15 6
26 20 13 17 23 22 27 14 4 -6 2 -16 -4 -22 -6 -6 -11 -20 -11 -30 0 -18 3 -17
25 7 14 15 25 32 25 37 0 6 5 7 10 4 6 -3 10 -1 10 6 0 15 68 99 80 99 5 0 12
-5 15 -10z m3845 -665 c0 -8 -4 -15 -10 -15 -5 0 -10 -7 -10 -15 0 -9 -6 -12
-15 -9 -8 4 -15 1 -15 -5 0 -6 9 -11 21 -11 11 0 17 -4 14 -10 -3 -5 -2 -10 4
-10 16 0 24 20 13 33 -7 8 -5 16 4 25 14 13 15 12 18 -7 2 -16 26 -37 26 -23
0 7 5 12 10 12 6 0 10 -7 10 -16 0 -11 -8 -15 -27 -12 -20 2 -28 -2 -28 -12 0
-10 8 -14 25 -13 l25 3 -23 -12 c-19 -9 -25 -9 -33 3 -7 10 -11 11 -17 2 -7
-11 -356 -40 -702 -58 -58 -3 -125 -8 -149 -10 -25 -2 -109 -7 -188 -11 -132
-6 -143 -6 -137 10 4 10 -1 25 -11 36 -10 11 -15 23 -11 27 4 4 11 1 15 -6 5
-8 11 -9 15 -3 6 9 -21 27 -36 24 -5 -1 -8 3 -8 8 0 6 12 10 28 9 28 -1 99 4
302 21 63 5 185 14 270 20 85 5 180 12 210 15 30 2 118 7 195 11 77 3 142 8
144 10 2 2 19 4 38 4 23 0 33 -5 33 -15z m1353 -167 c13 -183 21 -1038 10
-1038 -6 0 -11 36 -12 88 -2 119 -19 669 -27 875 -6 144 -5 167 8 167 12 0 16
-20 21 -92z m-2340 -589 c3 -12 3 -34 0 -49 -6 -31 -5 -31 -298 -45 -60 -3
-141 -8 -180 -10 -38 -2 -127 -7 -197 -11 l-127 -6 6 39 c3 21 10 42 14 48 5
5 47 9 94 10 47 0 85 2 85 5 0 3 37 6 83 8 45 1 116 6 157 11 41 4 119 8 172
7 54 -1 98 2 98 7 0 4 20 7 44 7 36 0 45 -4 49 -21z m-3214 -202 c7 -20 12
-39 10 -41 -2 -2 -52 -6 -111 -10 l-108 -7 0 45 0 45 48 4 c26 2 69 3 97 3 48
-1 50 -2 64 -39z m748 -247 c3 -8 5 -21 4 -27 -1 -7 3 -13 9 -13 18 0 11 -56
-11 -84 l-21 -27 26 7 c27 6 31 -2 27 -48 -1 -9 2 -19 8 -22 5 -3 7 -15 4 -26
-3 -12 0 -20 7 -20 9 0 10 -11 5 -37 -6 -33 -5 -36 10 -23 14 12 16 10 11 -16
-2 -16 -5 -32 -5 -36 -2 -12 -35 4 -49 24 -7 10 -19 18 -27 18 -8 0 -11 7 -8
20 4 13 0 20 -10 20 -23 0 -27 23 -23 133 5 103 26 230 33 192 2 -11 7 -27 10
-35z m-1445 -318 c-178 -188 -630 -633 -764 -750 -112 -98 -212 -201 -280
-290 -41 -54 -50 -46 -10 9 61 82 166 191 310 322 189 170 571 547 732 721 69
74 127 130 128 125 2 -5 -50 -67 -116 -137z m1549 -83 c5 -8 9 -11 9 -6 0 4
14 -5 31 -20 19 -17 28 -34 26 -45 -3 -10 -2 -16 2 -13 5 2 14 -7 21 -20 7
-14 17 -25 22 -25 4 0 8 -7 8 -15 0 -7 7 -18 16 -23 12 -7 15 -18 12 -37 -3
-15 1 -40 9 -57 8 -16 13 -30 12 -32 -2 -2 -34 -17 -70 -33 -69 -32 -89 -30
-89 8 0 10 -5 21 -11 24 -5 4 -9 17 -7 30 1 12 -3 29 -9 37 -15 17 -6 58 12
58 8 0 20 -7 29 -15 8 -8 17 -15 21 -15 7 0 1 47 -8 56 -3 4 4 15 16 26 12 11
16 16 8 12 -26 -13 -73 -14 -84 -1 -15 16 -21 41 -8 33 5 -4 12 -2 16 4 3 5
-3 10 -15 10 -17 0 -19 3 -10 19 13 25 13 41 0 21 -8 -13 -10 -12 -10 3 0 9
-5 17 -11 17 -5 0 -8 4 -4 9 8 14 55 6 66 -10z m176 -590 c3 -24 11 -55 18
-69 21 -41 28 -107 14 -116 -7 -4 -15 -2 -17 4 -2 7 -10 12 -17 12 -8 0 -30
27 -50 60 -20 33 -40 60 -45 60 -5 0 -12 -27 -16 -60 -4 -35 -11 -60 -18 -60
-13 0 -14 6 -17 106 -1 39 1 77 5 83 10 16 56 14 56 -3 0 -16 39 -66 40 -51 0
6 -7 20 -15 32 -14 20 -13 23 12 43 32 25 43 17 50 -41z m2013 -1346 c0 -16
202 -167 265 -198 28 -13 79 -37 115 -53 36 -16 93 -53 128 -83 34 -30 90 -78
125 -108 34 -30 99 -71 143 -92 104 -49 255 -99 302 -99 35 -1 36 -1 17 -16
-27 -22 -236 -15 -263 9 -10 9 -29 13 -47 10 -42 -6 -142 32 -150 58 -5 14
-12 18 -26 14 -32 -10 -103 49 -139 116 -42 80 -60 90 -144 83 -58 -4 -78 -1
-139 23 -82 31 -191 88 -229 118 -28 23 -58 75 -58 100 0 9 5 13 10 10 6 -4
10 13 10 42 0 39 6 55 27 80 24 28 28 30 40 15 7 -10 13 -22 13 -29z m-3451
-520 c15 -54 14 -79 -8 -122 -22 -43 -94 -106 -201 -176 -67 -44 -82 -50 -148
-56 -40 -3 -78 -11 -83 -16 -6 -6 -17 -44 -25 -84 -16 -83 -56 -152 -92 -157
-12 -2 -22 -9 -22 -17 0 -31 -126 -110 -157 -98 -8 3 -19 -2 -26 -11 -27 -35
-210 -78 -271 -62 -38 9 -32 23 14 29 74 10 263 112 344 186 15 14 46 53 69
86 84 124 190 243 246 277 20 12 51 34 70 50 26 20 38 25 48 16 7 -6 13 -7 14
-2 1 5 2 16 3 26 0 9 32 53 69 98 38 45 70 95 74 112 l6 31 33 -35 c18 -20 37
-53 43 -75z"/>
<path d="M6178 6468 c-7 -4 -26 -8 -42 -8 -17 0 -48 -15 -77 -36 -54 -39 -53
-38 -39 -64 24 -46 138 -49 202 -7 30 21 95 104 87 111 -9 8 -120 12 -131 4z"/>
<path d="M8171 1526 c-20 -24 18 -53 127 -96 100 -40 151 -47 159 -23 4 10
-77 54 -95 52 -21 -3 -42 3 -54 15 -13 12 -111 66 -121 66 -3 0 -10 -6 -16
-14z"/>
<path d="M11974 7985 c3 -8 8 -272 12 -587 4 -315 8 -575 10 -577 2 -2 4 262
4 587 0 537 -1 592 -16 592 -10 0 -14 -6 -10 -15z"/>
</g>
</svg>
